<svg width="9" height="16" viewBox="0 0 9 16" fill="none" xmlns="http://www.w3.org/2000/svg">
<g clip-path="url(#clip0)">
<path d="M4.49998 14.0648C4.33868 14.0648 4.1774 14.0032 4.05442 13.8803L0.184627 10.0105C-0.0615424 9.76431 -0.0615424 9.36519 0.184627 9.11912C0.430697 8.87305 0.829739 8.87305 1.07593 9.11912L4.49998 12.5434L7.92404 9.11924C8.17021 8.87317 8.56921 8.87317 8.81526 9.11924C9.06155 9.36531 9.06155 9.76443 8.81526 10.0106L4.94553 13.8804C4.82249 14.0034 4.66121 14.0648 4.49998 14.0648Z" fill="#7D7D7D"/>
</g>
<g clip-path="url(#clip1)">
<path d="M4.49998 1.93518C4.33868 1.93518 4.1774 1.99676 4.05442 2.11968L0.184627 5.98952C-0.0615424 6.23569 -0.0615424 6.63481 0.184627 6.88088C0.430697 7.12695 0.829739 7.12695 1.07593 6.88088L4.49998 3.45663L7.92404 6.88076C8.17021 7.12683 8.56921 7.12683 8.81526 6.88076C9.06155 6.63469 9.06155 6.23557 8.81526 5.9894L4.94553 2.11956C4.82249 1.99662 4.66121 1.93518 4.49998 1.93518Z" fill="#7D7D7D"/>
</g>
<defs>
<clipPath id="clip0">
<rect width="9" height="9" fill="white" transform="translate(0 7)"/>
</clipPath>
<clipPath id="clip1">
<rect width="9" height="9" fill="white" transform="matrix(1 0 0 -1 0 9)"/>
</clipPath>
</defs>
</svg>
